<?xml version="1.0" standalone="no"?>
<!DOCTYPE svg PUBLIC "-//W3C//DTD SVG 20010904//EN"
 "http://www.w3.org/TR/2001/REC-SVG-20010904/DTD/svg10.dtd">
<svg version="1.0" xmlns="http://www.w3.org/2000/svg"
 width="512.000000pt" height="512.000000pt" viewBox="0 0 512.000000 512.000000"
 preserveAspectRatio="xMidYMid meet">

<g transform="translate(0.000000,512.000000) scale(0.100000,-0.100000)"
fill="#000000" stroke="none">
<path d="M425 4348 c-197 -37 -378 -222 -414 -422 -15 -83 -15 -2649 0 -2732
37 -205 218 -386 423 -423 41 -8 538 -11 1580 -11 1671 0 1581 -3 1708 61 82
41 186 145 227 227 54 106 61 153 61 389 0 117 2 213 4 213 2 0 179 -120 393
-266 213 -147 402 -273 420 -280 75 -32 184 -7 235 54 62 74 59 -17 56 1472
l-3 1355 -25 45 c-49 86 -162 132 -249 102 -17 -6 -209 -133 -426 -281 -217
-149 -397 -271 -400 -271 -3 0 -5 71 -5 158 0 176 -11 234 -61 334 -41 82
-145 186 -227 227 -127 64 -35 61 -1717 60 -916 -1 -1550 -5 -1580 -11z m3115
-318 c49 -13 109 -66 131 -114 17 -37 19 -71 19 -357 0 -311 0 -317 23 -360
17 -31 37 -50 71 -68 84 -43 87 -42 574 292 239 163 436 297 438 297 2 0 4
-497 4 -1105 0 -608 -2 -1105 -5 -1105 -3 0 -198 131 -432 292 -235 161 -446
298 -469 306 -79 26 -171 -24 -194 -106 -6 -22 -10 -182 -10 -397 0 -328 -2
-364 -19 -401 -22 -48 -82 -101 -131 -114 -22 -6 -594 -10 -1540 -10 l-1505 0
-51 24 c-54 25 -94 69 -113 125 -17 51 -16 2608 1 2665 15 50 80 118 128 133
46 14 3028 18 3080 3z"/>
</g>
</svg>
